<svg xmlns="http://www.w3.org/2000/svg" viewBox="0 0 24 24" fill="none" color="#000" width="24" height="24"><g transform="translate(-0.843243 -0.843243) scale(0.13378378)"><path fill="none" stroke="currentColor" stroke-linecap="round" stroke-width="12.70707" d="M48 78v36c0 26.51 21.49 48 48 48v0c26.51 0 48-21.49 48-48V78" stroke-linejoin="round" fill-rule="nonzero" clip-rule="nonzero" opacity="1" fill-opacity="1" stroke-opacity="1"/><path fill="none" stroke="currentColor" stroke-width="12.70707" d="M48 120h-3.5C32.07 120 22 109.93 22 97.5 22 60.22 52.22 30 89.5 30h13c37.28 0 67.5 30.22 67.5 67.5 0 12.43-10.07 22.5-22.5 22.5H145" stroke-linecap="round" stroke-linejoin="round" fill-rule="nonzero" clip-rule="nonzero" opacity="1" fill-opacity="1" stroke-opacity="1"/><path fill="none" stroke="currentColor" stroke-linecap="round" stroke-linejoin="round" stroke-width="12.70707" d="m96 138 9-14H87l9 14Zm0 0v22" fill-rule="nonzero" clip-rule="nonzero" opacity="1" fill-opacity="1" stroke-opacity="1"/><path d="M68 96a8 8 0 1 1 16 0 8 8 0 1 1-16 0m40 0a8 8 0 1 1 16 0 8 8 0 1 1-16 0" fill="currentColor" stroke="none" stroke-width="1px" stroke-linecap="butt" stroke-linejoin="miter" fill-rule="nonzero" clip-rule="nonzero" opacity="1" fill-opacity="1" stroke-opacity="1"/></g></svg>
