<svg xmlns="http://www.w3.org/2000/svg" viewBox="0 0 24 24" fill="none" color="#000" width="24" height="24"><g transform="translate(-59.401144 -41.155063) scale(0.30253583)"><g><g fill="none" stroke="#000000" stroke-width="2" stroke-linecap="round" stroke-linejoin="round" stroke-miterlimit="10"><path d="M249.8038,185.59037c-1.13485,0.6101 -1.70212,0.91515 -2.18955,1.31496c-0.43226,0.35503 -0.81715,0.76392 -1.14459,1.21761c-0.36931,0.5108 -0.63898,1.09591 -1.17834,2.26614l-2.50369,5.43087c-3.38898,7.35107 -5.08331,11.0266 -7.28843,12.02451c-1.91241,0.8655 -4.12506,0.75257 -5.93943,-0.30278c-2.09209,-1.21696 -3.40381,-5.04599 -6.02721,-12.70341l-9.44722,-27.57608c-2.13279,-6.22543 -3.19917,-9.33815 -2.47922,-11.44108c0.62672,-1.83059 2.03745,-3.28611 3.84756,-3.96968c2.07944,-0.78528 5.22392,0.18332 11.51293,2.12059l28.172,8.67807c7.45362,2.29602 11.18042,3.44402 12.46293,5.45722c1.11279,1.7471 1.32502,3.92042 0.57083,5.8496c-0.86907,2.2233 -4.30348,4.07015 -11.17264,7.76386z" fill="none" stroke="currentColor" stroke-width="5.61917" stroke-linecap="round" stroke-linejoin="round" fill-rule="nonzero" clip-rule="nonzero" opacity="1" fill-opacity="1" stroke-opacity="1"/></g></g></g></svg>
